TITLE ""
FILE "TOEIC LR Kinnojyukugo_07.mp3" MP3
  TRACK 01 AUDIO
    TITLE "TOEIC LR Kinnojyukugo_07_001"
    INDEX 01 00:00:00
  TRACK 02 AUDIO
    TITLE "TOEIC LR Kinnojyukugo_07_002"
    INDEX 01 00:00:12
  TRACK 03 AUDIO
    TITLE "TOEIC LR Kinnojyukugo_07_003"
    INDEX 01 00:01:35
  TRACK 04 AUDIO
    TITLE "TOEIC LR Kinnojyukugo_07_004"
    INDEX 01 00:01:72
  TRACK 05 AUDIO
    TITLE "TOEIC LR Kinnojyukugo_07_005"
    INDEX 01 00:03:71
  TRACK 06 AUDIO
    TITLE "TOEIC LR Kinnojyukugo_07_006"
    INDEX 01 00:04:71
  TRACK 07 AUDIO
    TITLE "TOEIC LR Kinnojyukugo_07_007"
    INDEX 01 00:06:17
  TRACK 08 AUDIO
    TITLE "TOEIC LR Kinnojyukugo_07_008"
    INDEX 01 00:06:56
  TRACK 09 AUDIO
    TITLE "TOEIC LR Kinnojyukugo_07_009"
    INDEX 01 00:09:07
  TRACK 10 AUDIO
    TITLE "TOEIC LR Kinnojyukugo_07_010"
    INDEX 01 00:10:09
  TRACK 11 AUDIO
    TITLE "TOEIC LR Kinnojyukugo_07_011"
    INDEX 01 00:11:24
  TRACK 12 AUDIO
    TITLE "TOEIC LR Kinnojyukugo_07_012"
    INDEX 01 00:11:59
  TRACK 13 AUDIO
    TITLE "TOEIC LR Kinnojyukugo_07_013"
    INDEX 01 00:14:46
  TRACK 14 AUDIO
    TITLE "TOEIC LR Kinnojyukugo_07_014"
    INDEX 01 00:15:47
  TRACK 15 AUDIO
    TITLE "TOEIC LR Kinnojyukugo_07_015"
    INDEX 01 00:16:58
  TRACK 16 AUDIO
    TITLE "TOEIC LR Kinnojyukugo_07_016"
    INDEX 01 00:17:24
  TRACK 17 AUDIO
    TITLE "TOEIC LR Kinnojyukugo_07_017"
    INDEX 01 00:18:71
  TRACK 18 AUDIO
    TITLE "TOEIC LR Kinnojyukugo_07_018"
    INDEX 01 00:19:72
  TRACK 19 AUDIO
    TITLE "TOEIC LR Kinnojyukugo_07_019"
    INDEX 01 00:21:10
  TRACK 20 AUDIO
    TITLE "TOEIC LR Kinnojyukugo_07_020"
    INDEX 01 00:21:50
  TRACK 21 AUDIO
    TITLE "TOEIC LR Kinnojyukugo_07_021"
    INDEX 01 00:23:47
  TRACK 22 AUDIO
    TITLE "TOEIC LR Kinnojyukugo_07_022"
    INDEX 01 00:24:50
  TRACK 23 AUDIO
    TITLE "TOEIC LR Kinnojyukugo_07_023"
    INDEX 01 00:26:12
  TRACK 24 AUDIO
    TITLE "TOEIC LR Kinnojyukugo_07_024"
    INDEX 01 00:26:51
  TRACK 25 AUDIO
    TITLE "TOEIC LR Kinnojyukugo_07_025"
    INDEX 01 00:28:54
  TRACK 26 AUDIO
    TITLE "TOEIC LR Kinnojyukugo_07_026"
    INDEX 01 00:29:55
  TRACK 27 AUDIO
    TITLE "TOEIC LR Kinnojyukugo_07_027"
    INDEX 01 00:31:03
  TRACK 28 AUDIO
    TITLE "TOEIC LR Kinnojyukugo_07_028"
    INDEX 01 00:31:46
  TRACK 29 AUDIO
    TITLE "TOEIC LR Kinnojyukugo_07_029"
    INDEX 01 00:34:11
  TRACK 30 AUDIO
    TITLE "TOEIC LR Kinnojyukugo_07_030"
    INDEX 01 00:35:15
  TRACK 31 AUDIO
    TITLE "TOEIC LR Kinnojyukugo_07_031"
    INDEX 01 00:36:30
  TRACK 32 AUDIO
    TITLE "TOEIC LR Kinnojyukugo_07_032"
    INDEX 01 00:36:67
  TRACK 33 AUDIO
    TITLE "TOEIC LR Kinnojyukugo_07_033"
    INDEX 01 00:38:74
  TRACK 34 AUDIO
    TITLE "TOEIC LR Kinnojyukugo_07_034"
    INDEX 01 00:39:75
  TRACK 35 AUDIO
    TITLE "TOEIC LR Kinnojyukugo_07_035"
    INDEX 01 00:41:39
  TRACK 36 AUDIO
    TITLE "TOEIC LR Kinnojyukugo_07_036"
    INDEX 01 00:41:74
  TRACK 37 AUDIO
    TITLE "TOEIC LR Kinnojyukugo_07_037"
    INDEX 01 00:44:23
  TRACK 38 AUDIO
    TITLE "TOEIC LR Kinnojyukugo_07_038"
    INDEX 01 00:45:25
  TRACK 39 AUDIO
    TITLE "TOEIC LR Kinnojyukugo_07_039"
    INDEX 01 00:46:63
  TRACK 40 AUDIO
    TITLE "TOEIC LR Kinnojyukugo_07_040"
    INDEX 01 00:47:27
  TRACK 41 AUDIO
    TITLE "TOEIC LR Kinnojyukugo_07_041"
    INDEX 01 00:49:26
  TRACK 42 AUDIO
    TITLE "TOEIC LR Kinnojyukugo_07_042"
    INDEX 01 00:50:30
  TRACK 43 AUDIO
    TITLE "TOEIC LR Kinnojyukugo_07_043"
    INDEX 01 00:51:45
  TRACK 44 AUDIO
    TITLE "TOEIC LR Kinnojyukugo_07_044"
    INDEX 01 00:52:09
  TRACK 45 AUDIO
    TITLE "TOEIC LR Kinnojyukugo_07_045"
    INDEX 01 00:54:26
  TRACK 46 AUDIO
    TITLE "TOEIC LR Kinnojyukugo_07_046"
    INDEX 01 00:55:25
  TRACK 47 AUDIO
    TITLE "TOEIC LR Kinnojyukugo_07_047"
    INDEX 01 00:56:34
  TRACK 48 AUDIO
    TITLE "TOEIC LR Kinnojyukugo_07_048"
    INDEX 01 00:56:73
  TRACK 49 AUDIO
    TITLE "TOEIC LR Kinnojyukugo_07_049"
    INDEX 01 00:58:45
  TRACK 50 AUDIO
    TITLE "TOEIC LR Kinnojyukugo_07_050"
    INDEX 01 00:59:46
  TRACK 51 AUDIO
    TITLE "TOEIC LR Kinnojyukugo_07_051"
    INDEX 01 01:01:28
  TRACK 52 AUDIO
    TITLE "TOEIC LR Kinnojyukugo_07_052"
    INDEX 01 01:01:67
  TRACK 53 AUDIO
    TITLE "TOEIC LR Kinnojyukugo_07_053"
    INDEX 01 01:04:61
  TRACK 54 AUDIO
    TITLE "TOEIC LR Kinnojyukugo_07_054"
    INDEX 01 01:05:61
  TRACK 55 AUDIO
    TITLE "TOEIC LR Kinnojyukugo_07_055"
    INDEX 01 01:07:20
  TRACK 56 AUDIO
    TITLE "TOEIC LR Kinnojyukugo_07_056"
    INDEX 01 01:07:58
  TRACK 57 AUDIO
    TITLE "TOEIC LR Kinnojyukugo_07_057"
    INDEX 01 01:09:68
  TRACK 58 AUDIO
    TITLE "TOEIC LR Kinnojyukugo_07_058"
    INDEX 01 01:10:68
  TRACK 59 AUDIO
    TITLE "TOEIC LR Kinnojyukugo_07_059"
    INDEX 01 01:12:04
  TRACK 60 AUDIO
    TITLE "TOEIC LR Kinnojyukugo_07_060"
    INDEX 01 01:12:41
  TRACK 61 AUDIO
    TITLE "TOEIC LR Kinnojyukugo_07_061"
    INDEX 01 01:14:56
  TRACK 62 AUDIO
    TITLE "TOEIC LR Kinnojyukugo_07_062"
    INDEX 01 01:15:57
  TRACK 63 AUDIO
    TITLE "TOEIC LR Kinnojyukugo_07_063"
    INDEX 01 01:17:01
  TRACK 64 AUDIO
    TITLE "TOEIC LR Kinnojyukugo_07_064"
    INDEX 01 01:17:38
  TRACK 65 AUDIO
    TITLE "TOEIC LR Kinnojyukugo_07_065"
    INDEX 01 01:19:08
  TRACK 66 AUDIO
    TITLE "TOEIC LR Kinnojyukugo_07_066"
    INDEX 01 01:20:07
  TRACK 67 AUDIO
    TITLE "TOEIC LR Kinnojyukugo_07_067"
    INDEX 01 01:21:30
  TRACK 68 AUDIO
    TITLE "TOEIC LR Kinnojyukugo_07_068"
    INDEX 01 01:21:68
  TRACK 69 AUDIO
    TITLE "TOEIC LR Kinnojyukugo_07_069"
    INDEX 01 01:24:17
  TRACK 70 AUDIO
    TITLE "TOEIC LR Kinnojyukugo_07_070"
    INDEX 01 01:25:16
  TRACK 71 AUDIO
    TITLE "TOEIC LR Kinnojyukugo_07_071"
    INDEX 01 01:26:43
  TRACK 72 AUDIO
    TITLE "TOEIC LR Kinnojyukugo_07_072"
    INDEX 01 01:27:07
  TRACK 73 AUDIO
    TITLE "TOEIC LR Kinnojyukugo_07_073"
    INDEX 01 01:29:49
  TRACK 74 AUDIO
    TITLE "TOEIC LR Kinnojyukugo_07_074"
    INDEX 01 01:30:47
  TRACK 75 AUDIO
    TITLE "TOEIC LR Kinnojyukugo_07_075"
    INDEX 01 01:32:22
  TRACK 76 AUDIO
    TITLE "TOEIC LR Kinnojyukugo_07_076"
    INDEX 01 01:32:60
  TRACK 77 AUDIO
    TITLE "TOEIC LR Kinnojyukugo_07_077"
    INDEX 01 01:35:19
  TRACK 78 AUDIO
    TITLE "TOEIC LR Kinnojyukugo_07_078"
    INDEX 01 01:36:24
  TRACK 79 AUDIO
    TITLE "TOEIC LR Kinnojyukugo_07_079"
    INDEX 01 01:37:61
  TRACK 80 AUDIO
    TITLE "TOEIC LR Kinnojyukugo_07_080"
    INDEX 01 01:38:23
  TRACK 81 AUDIO
    TITLE "TOEIC LR Kinnojyukugo_07_081"
    INDEX 01 01:40:61
  TRACK 82 AUDIO
    TITLE "TOEIC LR Kinnojyukugo_07_082"
    INDEX 01 01:41:60
  TRACK 83 AUDIO
    TITLE "TOEIC LR Kinnojyukugo_07_083"
    INDEX 01 01:43:26
  TRACK 84 AUDIO
    TITLE "TOEIC LR Kinnojyukugo_07_084"
    INDEX 01 01:43:65
  TRACK 85 AUDIO
    TITLE "TOEIC LR Kinnojyukugo_07_085"
    INDEX 01 01:47:39
  TRACK 86 AUDIO
    TITLE "TOEIC LR Kinnojyukugo_07_086"
    INDEX 01 01:48:41
  TRACK 87 AUDIO
    TITLE "TOEIC LR Kinnojyukugo_07_087"
    INDEX 01 01:49:58
  TRACK 88 AUDIO
    TITLE "TOEIC LR Kinnojyukugo_07_088"
    INDEX 01 01:50:20
  TRACK 89 AUDIO
    TITLE "TOEIC LR Kinnojyukugo_07_089"
    INDEX 01 01:52:72
  TRACK 90 AUDIO
    TITLE "TOEIC LR Kinnojyukugo_07_090"
    INDEX 01 01:53:73
  TRACK 91 AUDIO
    TITLE "TOEIC LR Kinnojyukugo_07_091"
    INDEX 01 01:55:14
  TRACK 92 AUDIO
    TITLE "TOEIC LR Kinnojyukugo_07_092"
    INDEX 01 01:55:55
  TRACK 93 AUDIO
    TITLE "TOEIC LR Kinnojyukugo_07_093"
    INDEX 01 01:57:46
  TRACK 94 AUDIO
    TITLE "TOEIC LR Kinnojyukugo_07_094"
    INDEX 01 01:58:47
  TRACK 95 AUDIO
    TITLE "TOEIC LR Kinnojyukugo_07_095"
    INDEX 01 02:00:36
  TRACK 96 AUDIO
    TITLE "TOEIC LR Kinnojyukugo_07_096"
    INDEX 01 02:00:75
  TRACK 97 AUDIO
    TITLE "TOEIC LR Kinnojyukugo_07_097"
    INDEX 01 02:03:39
  TRACK 98 AUDIO
    TITLE "TOEIC LR Kinnojyukugo_07_098"
    INDEX 01 02:04:40
  TRACK 99 AUDIO
    TITLE "TOEIC LR Kinnojyukugo_07_099"
    INDEX 01 02:05:49
  TRACK 100 AUDIO
    TITLE "TOEIC LR Kinnojyukugo_07_100"
    INDEX 01 02:06:13
  TRACK 101 AUDIO
    TITLE "TOEIC LR Kinnojyukugo_07_101"
    INDEX 01 02:08:12
  TRACK 102 AUDIO
    TITLE "TOEIC LR Kinnojyukugo_07_102"
    INDEX 01 02:09:14
  TRACK 103 AUDIO
    TITLE "TOEIC LR Kinnojyukugo_07_103"
    INDEX 01 02:10:68
  TRACK 104 AUDIO
    TITLE "TOEIC LR Kinnojyukugo_07_104"
    INDEX 01 02:11:30
  TRACK 105 AUDIO
    TITLE "TOEIC LR Kinnojyukugo_07_105"
    INDEX 01 02:13:66
  TRACK 106 AUDIO
    TITLE "TOEIC LR Kinnojyukugo_07_106"
    INDEX 01 02:14:66
  TRACK 107 AUDIO
    TITLE "TOEIC LR Kinnojyukugo_07_107"
    INDEX 01 02:15:53
  TRACK 108 AUDIO
    TITLE "TOEIC LR Kinnojyukugo_07_108"
    INDEX 01 02:16:27
  TRACK 109 AUDIO
    TITLE "TOEIC LR Kinnojyukugo_07_109"
    INDEX 01 02:18:19
  TRACK 110 AUDIO
    TITLE "TOEIC LR Kinnojyukugo_07_110"
    INDEX 01 02:19:18
  TRACK 111 AUDIO
    TITLE "TOEIC LR Kinnojyukugo_07_111"
    INDEX 01 02:20:43
  TRACK 112 AUDIO
    TITLE "TOEIC LR Kinnojyukugo_07_112"
    INDEX 01 02:21:05
  TRACK 113 AUDIO
    TITLE "TOEIC LR Kinnojyukugo_07_113"
    INDEX 01 02:23:57
  TRACK 114 AUDIO
    TITLE "TOEIC LR Kinnojyukugo_07_114"
    INDEX 01 02:24:54
  TRACK 115 AUDIO
    TITLE "TOEIC LR Kinnojyukugo_07_115"
    INDEX 01 02:26:08
  TRACK 116 AUDIO
    TITLE "TOEIC LR Kinnojyukugo_07_116"
    INDEX 01 02:26:45
  TRACK 117 AUDIO
    TITLE "TOEIC LR Kinnojyukugo_07_117"
    INDEX 01 02:28:52
  TRACK 118 AUDIO
    TITLE "TOEIC LR Kinnojyukugo_07_118"
    INDEX 01 02:29:54
  TRACK 119 AUDIO
    TITLE "TOEIC LR Kinnojyukugo_07_119"
    INDEX 01 02:31:11
  TRACK 120 AUDIO
    TITLE "TOEIC LR Kinnojyukugo_07_120"
    INDEX 01 02:31:51
  TRACK 121 AUDIO
    TITLE "TOEIC LR Kinnojyukugo_07_121"
    INDEX 01 02:33:65
  TRACK 122 AUDIO
    TITLE "TOEIC LR Kinnojyukugo_07_122"
    INDEX 01 02:34:66
  TRACK 123 AUDIO
    TITLE "TOEIC LR Kinnojyukugo_07_123"
    INDEX 01 02:36:26
  TRACK 124 AUDIO
    TITLE "TOEIC LR Kinnojyukugo_07_124"
    INDEX 01 02:36:67
  TRACK 125 AUDIO
    TITLE "TOEIC LR Kinnojyukugo_07_125"
    INDEX 01 02:39:13
  TRACK 126 AUDIO
    TITLE "TOEIC LR Kinnojyukugo_07_126"
    INDEX 01 02:40:14
  TRACK 127 AUDIO
    TITLE "TOEIC LR Kinnojyukugo_07_127"
    INDEX 01 02:42:07
  TRACK 128 AUDIO
    TITLE "TOEIC LR Kinnojyukugo_07_128"
    INDEX 01 02:42:44
  TRACK 129 AUDIO
    TITLE "TOEIC LR Kinnojyukugo_07_129"
    INDEX 01 02:45:41
  TRACK 130 AUDIO
    TITLE "TOEIC LR Kinnojyukugo_07_130"
    INDEX 01 02:46:48
  TRACK 131 AUDIO
    TITLE "TOEIC LR Kinnojyukugo_07_131"
    INDEX 01 02:47:61
  TRACK 132 AUDIO
    TITLE "TOEIC LR Kinnojyukugo_07_132"
    INDEX 01 02:48:24
  TRACK 133 AUDIO
    TITLE "TOEIC LR Kinnojyukugo_07_133"
    INDEX 01 02:50:75
  TRACK 134 AUDIO
    TITLE "TOEIC LR Kinnojyukugo_07_134"
    INDEX 01 02:52:08
  TRACK 135 AUDIO
    TITLE "TOEIC LR Kinnojyukugo_07_135"
    INDEX 01 02:53:42
  TRACK 136 AUDIO
    TITLE "TOEIC LR Kinnojyukugo_07_136"
    INDEX 01 02:54:08
  TRACK 137 AUDIO
    TITLE "TOEIC LR Kinnojyukugo_07_137"
    INDEX 01 02:56:58
  TRACK 138 AUDIO
    TITLE "TOEIC LR Kinnojyukugo_07_138"
    INDEX 01 02:57:68
  TRACK 139 AUDIO
    TITLE "TOEIC LR Kinnojyukugo_07_139"
    INDEX 01 03:00:03
  TRACK 140 AUDIO
    TITLE "TOEIC LR Kinnojyukugo_07_140"
    INDEX 01 03:00:40
  TRACK 141 AUDIO
    TITLE "TOEIC LR Kinnojyukugo_07_141"
    INDEX 01 03:04:01
  TRACK 142 AUDIO
    TITLE "TOEIC LR Kinnojyukugo_07_142"
    INDEX 01 03:05:04
  TRACK 143 AUDIO
    TITLE "TOEIC LR Kinnojyukugo_07_143"
    INDEX 01 03:06:08
  TRACK 144 AUDIO
    TITLE "TOEIC LR Kinnojyukugo_07_144"
    INDEX 01 03:06:45
  TRACK 145 AUDIO
    TITLE "TOEIC LR Kinnojyukugo_07_145"
    INDEX 01 03:09:02
  TRACK 146 AUDIO
    TITLE "TOEIC LR Kinnojyukugo_07_146"
    INDEX 01 03:10:04
  TRACK 147 AUDIO
    TITLE "TOEIC LR Kinnojyukugo_07_147"
    INDEX 01 03:11:28
  TRACK 148 AUDIO
    TITLE "TOEIC LR Kinnojyukugo_07_148"
    INDEX 01 03:11:66
  TRACK 149 AUDIO
    TITLE "TOEIC LR Kinnojyukugo_07_149"
    INDEX 01 03:15:07
  TRACK 150 AUDIO
    TITLE "TOEIC LR Kinnojyukugo_07_150"
    INDEX 01 03:16:12
  TRACK 151 AUDIO
    TITLE "TOEIC LR Kinnojyukugo_07_151"
    INDEX 01 03:17:41
  TRACK 152 AUDIO
    TITLE "TOEIC LR Kinnojyukugo_07_152"
    INDEX 01 03:18:05
  TRACK 153 AUDIO
    TITLE "TOEIC LR Kinnojyukugo_07_153"
    INDEX 01 03:20:41
  TRACK 154 AUDIO
    TITLE "TOEIC LR Kinnojyukugo_07_154"
    INDEX 01 03:21:43
  TRACK 155 AUDIO
    TITLE "TOEIC LR Kinnojyukugo_07_155"
    INDEX 01 03:22:73
  TRACK 156 AUDIO
    TITLE "TOEIC LR Kinnojyukugo_07_156"
    INDEX 01 03:23:40
  TRACK 157 AUDIO
    TITLE "TOEIC LR Kinnojyukugo_07_157"
    INDEX 01 03:25:50
  TRACK 158 AUDIO
    TITLE "TOEIC LR Kinnojyukugo_07_158"
    INDEX 01 03:26:50
  TRACK 159 AUDIO
    TITLE "TOEIC LR Kinnojyukugo_07_159"
    INDEX 01 03:27:61
  TRACK 160 AUDIO
    TITLE "TOEIC LR Kinnojyukugo_07_160"
    INDEX 01 03:28:31
  TRACK 161 AUDIO
    TITLE "TOEIC LR Kinnojyukugo_07_161"
    INDEX 01 03:30:71
  TRACK 162 AUDIO
    TITLE "TOEIC LR Kinnojyukugo_07_162"
    INDEX 01 03:31:72
  TRACK 163 AUDIO
    TITLE "TOEIC LR Kinnojyukugo_07_163"
    INDEX 01 03:33:18
  TRACK 164 AUDIO
    TITLE "TOEIC LR Kinnojyukugo_07_164"
    INDEX 01 03:33:56
  TRACK 165 AUDIO
    TITLE "TOEIC LR Kinnojyukugo_07_165"
    INDEX 01 03:36:15
  TRACK 166 AUDIO
    TITLE "TOEIC LR Kinnojyukugo_07_166"
    INDEX 01 03:37:16
  TRACK 167 AUDIO
    TITLE "TOEIC LR Kinnojyukugo_07_167"
    INDEX 01 03:38:45
  TRACK 168 AUDIO
    TITLE "TOEIC LR Kinnojyukugo_07_168"
    INDEX 01 03:39:07
  TRACK 169 AUDIO
    TITLE "TOEIC LR Kinnojyukugo_07_169"
    INDEX 01 03:41:57
  TRACK 170 AUDIO
    TITLE "TOEIC LR Kinnojyukugo_07_170"
    INDEX 01 03:42:56
  TRACK 171 AUDIO
    TITLE "TOEIC LR Kinnojyukugo_07_171"
    INDEX 01 03:44:02
  TRACK 172 AUDIO
    TITLE "TOEIC LR Kinnojyukugo_07_172"
    INDEX 01 03:44:40
  TRACK 173 AUDIO
    TITLE "TOEIC LR Kinnojyukugo_07_173"
    INDEX 01 03:46:43
  TRACK 174 AUDIO
    TITLE "TOEIC LR Kinnojyukugo_07_174"
    INDEX 01 03:47:42
  TRACK 175 AUDIO
    TITLE "TOEIC LR Kinnojyukugo_07_175"
    INDEX 01 03:48:55
  TRACK 176 AUDIO
    TITLE "TOEIC LR Kinnojyukugo_07_176"
    INDEX 01 03:49:17
  TRACK 177 AUDIO
    TITLE "TOEIC LR Kinnojyukugo_07_177"
    INDEX 01 03:51:22
  TRACK 178 AUDIO
    TITLE "TOEIC LR Kinnojyukugo_07_178"
    INDEX 01 03:52:24
  TRACK 179 AUDIO
    TITLE "TOEIC LR Kinnojyukugo_07_179"
    INDEX 01 03:53:54
  TRACK 180 AUDIO
    TITLE "TOEIC LR Kinnojyukugo_07_180"
    INDEX 01 03:54:19
  TRACK 181 AUDIO
    TITLE "TOEIC LR Kinnojyukugo_07_181"
    INDEX 01 03:56:53
  TRACK 182 AUDIO
    TITLE "TOEIC LR Kinnojyukugo_07_182"
    INDEX 01 03:57:54
  TRACK 183 AUDIO
    TITLE "TOEIC LR Kinnojyukugo_07_183"
    INDEX 01 03:59:65
  TRACK 184 AUDIO
    TITLE "TOEIC LR Kinnojyukugo_07_184"
    INDEX 01 04:00:31
  TRACK 185 AUDIO
    TITLE "TOEIC LR Kinnojyukugo_07_185"
    INDEX 01 04:02:18
  TRACK 186 AUDIO
    TITLE "TOEIC LR Kinnojyukugo_07_186"
    INDEX 01 04:03:23
  TRACK 187 AUDIO
    TITLE "TOEIC LR Kinnojyukugo_07_187"
    INDEX 01 04:04:48
  TRACK 188 AUDIO
    TITLE "TOEIC LR Kinnojyukugo_07_188"
    INDEX 01 04:05:14
  TRACK 189 AUDIO
    TITLE "TOEIC LR Kinnojyukugo_07_189"
    INDEX 01 04:06:75
  TRACK 190 AUDIO
    TITLE "TOEIC LR Kinnojyukugo_07_190"
    INDEX 01 04:08:01
  TRACK 191 AUDIO
    TITLE "TOEIC LR Kinnojyukugo_07_191"
    INDEX 01 04:09:53
  TRACK 192 AUDIO
    TITLE "TOEIC LR Kinnojyukugo_07_192"
    INDEX 01 04:10:16
  TRACK 193 AUDIO
    TITLE "TOEIC LR Kinnojyukugo_07_193"
    INDEX 01 04:12:50
  TRACK 194 AUDIO
    TITLE "TOEIC LR Kinnojyukugo_07_194"
    INDEX 01 04:13:51
  TRACK 195 AUDIO
    TITLE "TOEIC LR Kinnojyukugo_07_195"
    INDEX 01 04:14:68
  TRACK 196 AUDIO
    TITLE "TOEIC LR Kinnojyukugo_07_196"
    INDEX 01 04:15:32
  TRACK 197 AUDIO
    TITLE "TOEIC LR Kinnojyukugo_07_197"
    INDEX 01 04:17:72
  TRACK 198 AUDIO
    TITLE "TOEIC LR Kinnojyukugo_07_198"
    INDEX 01 04:18:72
  TRACK 199 AUDIO
    TITLE "TOEIC LR Kinnojyukugo_07_199"
    INDEX 01 04:20:24
  TRACK 200 AUDIO
    TITLE "TOEIC LR Kinnojyukugo_07_200"
    INDEX 01 04:20:65
  TRACK 201 AUDIO
    TITLE "TOEIC LR Kinnojyukugo_07_201"
    INDEX 01 04:23:18
  TRACK 202 AUDIO
    TITLE "TOEIC LR Kinnojyukugo_07_202"
    INDEX 01 04:24:24
  TRACK 203 AUDIO
    TITLE "TOEIC LR Kinnojyukugo_07_203"
    INDEX 01 04:26:09
  TRACK 204 AUDIO
    TITLE "TOEIC LR Kinnojyukugo_07_204"
    INDEX 01 04:26:50
  TRACK 205 AUDIO
    TITLE "TOEIC LR Kinnojyukugo_07_205"
    INDEX 01 04:29:42
  TRACK 206 AUDIO
    TITLE "TOEIC LR Kinnojyukugo_07_206"
    INDEX 01 04:30:42
  TRACK 207 AUDIO
    TITLE "TOEIC LR Kinnojyukugo_07_207"
    INDEX 01 04:32:03
  TRACK 208 AUDIO
    TITLE "TOEIC LR Kinnojyukugo_07_208"
    INDEX 01 04:32:41
  TRACK 209 AUDIO
    TITLE "TOEIC LR Kinnojyukugo_07_209"
    INDEX 01 04:35:21
  TRACK 210 AUDIO
    TITLE "TOEIC LR Kinnojyukugo_07_210"
    INDEX 01 04:36:21
  TRACK 211 AUDIO
    TITLE "TOEIC LR Kinnojyukugo_07_211"
    INDEX 01 04:37:61
  TRACK 212 AUDIO
    TITLE "TOEIC LR Kinnojyukugo_07_212"
    INDEX 01 04:38:28
  TRACK 213 AUDIO
    TITLE "TOEIC LR Kinnojyukugo_07_213"
    INDEX 01 04:42:06
  TRACK 214 AUDIO
    TITLE "TOEIC LR Kinnojyukugo_07_214"
    INDEX 01 04:43:09
  TRACK 215 AUDIO
    TITLE "TOEIC LR Kinnojyukugo_07_215"
    INDEX 01 04:44:28
  TRACK 216 AUDIO
    TITLE "TOEIC LR Kinnojyukugo_07_216"
    INDEX 01 04:44:65
  TRACK 217 AUDIO
    TITLE "TOEIC LR Kinnojyukugo_07_217"
    INDEX 01 04:47:27
  TRACK 218 AUDIO
    TITLE "TOEIC LR Kinnojyukugo_07_218"
    INDEX 01 04:48:30
  TRACK 219 AUDIO
    TITLE "TOEIC LR Kinnojyukugo_07_219"
    INDEX 01 04:49:69
  TRACK 220 AUDIO
    TITLE "TOEIC LR Kinnojyukugo_07_220"
    INDEX 01 04:50:29
  TRACK 221 AUDIO
    TITLE "TOEIC LR Kinnojyukugo_07_221"
    INDEX 01 04:52:45
  TRACK 222 AUDIO
    TITLE "TOEIC LR Kinnojyukugo_07_222"
    INDEX 01 04:53:45
  TRACK 223 AUDIO
    TITLE "TOEIC LR Kinnojyukugo_07_223"
    INDEX 01 04:55:04
  TRACK 224 AUDIO
    TITLE "TOEIC LR Kinnojyukugo_07_224"
    INDEX 01 04:55:42
  TRACK 225 AUDIO
    TITLE "TOEIC LR Kinnojyukugo_07_225"
    INDEX 01 04:57:70
  TRACK 226 AUDIO
    TITLE "TOEIC LR Kinnojyukugo_07_226"
    INDEX 01 04:58:69
  TRACK 227 AUDIO
    TITLE "TOEIC LR Kinnojyukugo_07_227"
    INDEX 01 05:00:51
  TRACK 228 AUDIO
    TITLE "TOEIC LR Kinnojyukugo_07_228"
    INDEX 01 05:01:13
  TRACK 229 AUDIO
    TITLE "TOEIC LR Kinnojyukugo_07_229"
    INDEX 01 05:05:22
  TRACK 230 AUDIO
    TITLE "TOEIC LR Kinnojyukugo_07_230"
    INDEX 01 05:06:26
  TRACK 231 AUDIO
    TITLE "TOEIC LR Kinnojyukugo_07_231"
    INDEX 01 05:07:29
  TRACK 232 AUDIO
    TITLE "TOEIC LR Kinnojyukugo_07_232"
    INDEX 01 05:07:68
  TRACK 233 AUDIO
    TITLE "TOEIC LR Kinnojyukugo_07_233"
    INDEX 01 05:09:46
  TRACK 234 AUDIO
    TITLE "TOEIC LR Kinnojyukugo_07_234"
    INDEX 01 05:10:47
  TRACK 235 AUDIO
    TITLE "TOEIC LR Kinnojyukugo_07_235"
    INDEX 01 05:12:19
  TRACK 236 AUDIO
    TITLE "TOEIC LR Kinnojyukugo_07_236"
    INDEX 01 05:12:64
  TRACK 237 AUDIO
    TITLE "TOEIC LR Kinnojyukugo_07_237"
    INDEX 01 05:15:37
  TRACK 238 AUDIO
    TITLE "TOEIC LR Kinnojyukugo_07_238"
    INDEX 01 05:16:38
  TRACK 239 AUDIO
    TITLE "TOEIC LR Kinnojyukugo_07_239"
    INDEX 01 05:17:45
  TRACK 240 AUDIO
    TITLE "TOEIC LR Kinnojyukugo_07_240"
    INDEX 01 05:18:07
  TRACK 241 AUDIO
    TITLE "TOEIC LR Kinnojyukugo_07_241"
    INDEX 01 05:20:73
  TRACK 242 AUDIO
    TITLE "TOEIC LR Kinnojyukugo_07_242"
    INDEX 01 05:21:72
  TRACK 243 AUDIO
    TITLE "TOEIC LR Kinnojyukugo_07_243"
    INDEX 01 05:23:13
  TRACK 244 AUDIO
    TITLE "TOEIC LR Kinnojyukugo_07_244"
    INDEX 01 05:23:52
  TRACK 245 AUDIO
    TITLE "TOEIC LR Kinnojyukugo_07_245"
    INDEX 01 05:26:17
  TRACK 246 AUDIO
    TITLE "TOEIC LR Kinnojyukugo_07_246"
    INDEX 01 05:27:18
  TRACK 247 AUDIO
    TITLE "TOEIC LR Kinnojyukugo_07_247"
    INDEX 01 05:28:47
  TRACK 248 AUDIO
    TITLE "TOEIC LR Kinnojyukugo_07_248"
    INDEX 01 05:29:09
  TRACK 249 AUDIO
    TITLE "TOEIC LR Kinnojyukugo_07_249"
    INDEX 01 05:31:55
  TRACK 250 AUDIO
    TITLE "TOEIC LR Kinnojyukugo_07_250"
    INDEX 01 05:32:59
  TRACK 251 AUDIO
    TITLE "TOEIC LR Kinnojyukugo_07_251"
    INDEX 01 05:34:01
  TRACK 252 AUDIO
    TITLE "TOEIC LR Kinnojyukugo_07_252"
    INDEX 01 05:34:40
  TRACK 253 AUDIO
    TITLE "TOEIC LR Kinnojyukugo_07_253"
    INDEX 01 05:36:33
  TRACK 254 AUDIO
    TITLE "TOEIC LR Kinnojyukugo_07_254"
    INDEX 01 05:37:32
  TRACK 255 AUDIO
    TITLE "TOEIC LR Kinnojyukugo_07_255"
    INDEX 01 05:38:57
  TRACK 256 AUDIO
    TITLE "TOEIC LR Kinnojyukugo_07_256"
    INDEX 01 05:39:19
  TRACK 257 AUDIO
    TITLE "TOEIC LR Kinnojyukugo_07_257"
    INDEX 01 05:41:50
  TRACK 258 AUDIO
    TITLE "TOEIC LR Kinnojyukugo_07_258"
    INDEX 01 05:42:49
  TRACK 259 AUDIO
    TITLE "TOEIC LR Kinnojyukugo_07_259"
    INDEX 01 05:44:66
  TRACK 260 AUDIO
    TITLE "TOEIC LR Kinnojyukugo_07_260"
    INDEX 01 05:45:30
  TRACK 261 AUDIO
    TITLE "TOEIC LR Kinnojyukugo_07_261"
    INDEX 01 05:47:68
  TRACK 262 AUDIO
    TITLE "TOEIC LR Kinnojyukugo_07_262"
    INDEX 01 05:48:67
  TRACK 263 AUDIO
    TITLE "TOEIC LR Kinnojyukugo_07_263"
    INDEX 01 05:50:06
  TRACK 264 AUDIO
    TITLE "TOEIC LR Kinnojyukugo_07_264"
    INDEX 01 05:50:43
  TRACK 265 AUDIO
    TITLE "TOEIC LR Kinnojyukugo_07_265"
    INDEX 01 05:53:20
  TRACK 266 AUDIO
    TITLE "TOEIC LR Kinnojyukugo_07_266"
    INDEX 01 05:54:21
  TRACK 267 AUDIO
    TITLE "TOEIC LR Kinnojyukugo_07_267"
    INDEX 01 05:55:16
  TRACK 268 AUDIO
    TITLE "TOEIC LR Kinnojyukugo_07_268"
    INDEX 01 05:55:60
  TRACK 269 AUDIO
    TITLE "TOEIC LR Kinnojyukugo_07_269"
    INDEX 01 05:57:49
  TRACK 270 AUDIO
    TITLE "TOEIC LR Kinnojyukugo_07_270"
    INDEX 01 05:58:50
  TRACK 271 AUDIO
    TITLE "TOEIC LR Kinnojyukugo_07_271"
    INDEX 01 06:00:04
  TRACK 272 AUDIO
    TITLE "TOEIC LR Kinnojyukugo_07_272"
    INDEX 01 06:00:45
  TRACK 273 AUDIO
    TITLE "TOEIC LR Kinnojyukugo_07_273"
    INDEX 01 06:03:02
  TRACK 274 AUDIO
    TITLE "TOEIC LR Kinnojyukugo_07_274"
    INDEX 01 06:04:02
  TRACK 275 AUDIO
    TITLE "TOEIC LR Kinnojyukugo_07_275"
    INDEX 01 06:05:38
  TRACK 276 AUDIO
    TITLE "TOEIC LR Kinnojyukugo_07_276"
    INDEX 01 06:06:05
  TRACK 277 AUDIO
    TITLE "TOEIC LR Kinnojyukugo_07_277"
    INDEX 01 06:08:74
  TRACK 278 AUDIO
    TITLE "TOEIC LR Kinnojyukugo_07_278"
    INDEX 01 06:09:75
  TRACK 279 AUDIO
    TITLE "TOEIC LR Kinnojyukugo_07_279"
    INDEX 01 06:11:21
  TRACK 280 AUDIO
    TITLE "TOEIC LR Kinnojyukugo_07_280"
    INDEX 01 06:11:57
  TRACK 281 AUDIO
    TITLE "TOEIC LR Kinnojyukugo_07_281"
    INDEX 01 06:14:18
  TRACK 282 AUDIO
    TITLE "TOEIC LR Kinnojyukugo_07_282"
    INDEX 01 06:15:17
  TRACK 283 AUDIO
    TITLE "TOEIC LR Kinnojyukugo_07_283"
    INDEX 01 06:17:53
  TRACK 284 AUDIO
    TITLE "TOEIC LR Kinnojyukugo_07_284"
    INDEX 01 06:18:16
  TRACK 285 AUDIO
    TITLE "TOEIC LR Kinnojyukugo_07_285"
    INDEX 01 06:22:15
  TRACK 286 AUDIO
    TITLE "TOEIC LR Kinnojyukugo_07_286"
    INDEX 01 06:23:15
  TRACK 287 AUDIO
    TITLE "TOEIC LR Kinnojyukugo_07_287"
    INDEX 01 06:25:35
  TRACK 288 AUDIO
    TITLE "TOEIC LR Kinnojyukugo_07_288"
    INDEX 01 06:25:72
  TRACK 289 AUDIO
    TITLE "TOEIC LR Kinnojyukugo_07_289"
    INDEX 01 06:27:60
  TRACK 290 AUDIO
    TITLE "TOEIC LR Kinnojyukugo_07_290"
    INDEX 01 06:28:59
  TRACK 291 AUDIO
    TITLE "TOEIC LR Kinnojyukugo_07_291"
    INDEX 01 06:30:17
  TRACK 292 AUDIO
    TITLE "TOEIC LR Kinnojyukugo_07_292"
    INDEX 01 06:30:48
  TRACK 293 AUDIO
    TITLE "TOEIC LR Kinnojyukugo_07_293"
    INDEX 01 06:33:41
  TRACK 294 AUDIO
    TITLE "TOEIC LR Kinnojyukugo_07_294"
    INDEX 01 06:34:44
  TRACK 295 AUDIO
    TITLE "TOEIC LR Kinnojyukugo_07_295"
    INDEX 01 06:36:08
  TRACK 296 AUDIO
    TITLE "TOEIC LR Kinnojyukugo_07_296"
    INDEX 01 06:36:45
  TRACK 297 AUDIO
    TITLE "TOEIC LR Kinnojyukugo_07_297"
    INDEX 01 06:38:54
  TRACK 298 AUDIO
    TITLE "TOEIC LR Kinnojyukugo_07_298"
    INDEX 01 06:39:53
  TRACK 299 AUDIO
    TITLE "TOEIC LR Kinnojyukugo_07_299"
    INDEX 01 06:41:01
  TRACK 300 AUDIO
    TITLE "TOEIC LR Kinnojyukugo_07_300"
    INDEX 01 06:41:38
  TRACK 301 AUDIO
    TITLE "TOEIC LR Kinnojyukugo_07_301"
    INDEX 01 06:43:70
  TRACK 302 AUDIO
    TITLE "TOEIC LR Kinnojyukugo_07_302"
    INDEX 01 06:45:07
  TRACK 303 AUDIO
    TITLE "TOEIC LR Kinnojyukugo_07_303"
    INDEX 01 06:46:28
  TRACK 304 AUDIO
    TITLE "TOEIC LR Kinnojyukugo_07_304"
    INDEX 01 06:46:57
  TRACK 305 AUDIO
    TITLE "TOEIC LR Kinnojyukugo_07_305"
    INDEX 01 06:49:36
  TRACK 306 AUDIO
    TITLE "TOEIC LR Kinnojyukugo_07_306"
    INDEX 01 06:50:35
  TRACK 307 AUDIO
    TITLE "TOEIC LR Kinnojyukugo_07_307"
    INDEX 01 06:51:64
  TRACK 308 AUDIO
    TITLE "TOEIC LR Kinnojyukugo_07_308"
    INDEX 01 06:52:24
  TRACK 309 AUDIO
    TITLE "TOEIC LR Kinnojyukugo_07_309"
    INDEX 01 06:54:15
  TRACK 310 AUDIO
    TITLE "TOEIC LR Kinnojyukugo_07_310"
    INDEX 01 06:55:09
  TRACK 311 AUDIO
    TITLE "TOEIC LR Kinnojyukugo_07_311"
    INDEX 01 06:56:20
  TRACK 312 AUDIO
    TITLE "TOEIC LR Kinnojyukugo_07_312"
    INDEX 01 06:56:57
  TRACK 313 AUDIO
    TITLE "TOEIC LR Kinnojyukugo_07_313"
    INDEX 01 06:58:39
  TRACK 314 AUDIO
    TITLE "TOEIC LR Kinnojyukugo_07_314"
    INDEX 01 06:59:40
  TRACK 315 AUDIO
    TITLE "TOEIC LR Kinnojyukugo_07_315"
    INDEX 01 07:01:43
  TRACK 316 AUDIO
    TITLE "TOEIC LR Kinnojyukugo_07_316"
    INDEX 01 07:02:15
  TRACK 317 AUDIO
    TITLE "TOEIC LR Kinnojyukugo_07_317"
    INDEX 01 07:05:31
  TRACK 318 AUDIO
    TITLE "TOEIC LR Kinnojyukugo_07_318"
    INDEX 01 07:06:32
  TRACK 319 AUDIO
    TITLE "TOEIC LR Kinnojyukugo_07_319"
    INDEX 01 07:08:21
  TRACK 320 AUDIO
    TITLE "TOEIC LR Kinnojyukugo_07_320"
    INDEX 01 07:08:57
  TRACK 321 AUDIO
    TITLE "TOEIC LR Kinnojyukugo_07_321"
    INDEX 01 07:12:03
  TRACK 322 AUDIO
    TITLE "TOEIC LR Kinnojyukugo_07_322"
    INDEX 01 07:13:05
  TRACK 323 AUDIO
    TITLE "TOEIC LR Kinnojyukugo_07_323"
    INDEX 01 07:14:45
  TRACK 324 AUDIO
    TITLE "TOEIC LR Kinnojyukugo_07_324"
    INDEX 01 07:15:10
  TRACK 325 AUDIO
    TITLE "TOEIC LR Kinnojyukugo_07_325"
    INDEX 01 07:17:10
  TRACK 326 AUDIO
    TITLE "TOEIC LR Kinnojyukugo_07_326"
    INDEX 01 07:18:12
  TRACK 327 AUDIO
    TITLE "TOEIC LR Kinnojyukugo_07_327"
    INDEX 01 07:19:29
  TRACK 328 AUDIO
    TITLE "TOEIC LR Kinnojyukugo_07_328"
    INDEX 01 07:19:68
  TRACK 329 AUDIO
    TITLE "TOEIC LR Kinnojyukugo_07_329"
    INDEX 01 07:22:02
  TRACK 330 AUDIO
    TITLE "TOEIC LR Kinnojyukugo_07_330"
    INDEX 01 07:23:03
  TRACK 331 AUDIO
    TITLE "TOEIC LR Kinnojyukugo_07_331"
    INDEX 01 07:24:44
  TRACK 332 AUDIO
    TITLE "TOEIC LR Kinnojyukugo_07_332"
    INDEX 01 07:25:08
  TRACK 333 AUDIO
    TITLE "TOEIC LR Kinnojyukugo_07_333"
    INDEX 01 07:28:10
  TRACK 334 AUDIO
    TITLE "TOEIC LR Kinnojyukugo_07_334"
    INDEX 01 07:29:14
  TRACK 335 AUDIO
    TITLE "TOEIC LR Kinnojyukugo_07_335"
    INDEX 01 07:30:72
  TRACK 336 AUDIO
    TITLE "TOEIC LR Kinnojyukugo_07_336"
    INDEX 01 07:31:34
  TRACK 337 AUDIO
    TITLE "TOEIC LR Kinnojyukugo_07_337"
    INDEX 01 07:34:21
  TRACK 338 AUDIO
    TITLE "TOEIC LR Kinnojyukugo_07_338"
    INDEX 01 07:35:20
  TRACK 339 AUDIO
    TITLE "TOEIC LR Kinnojyukugo_07_339"
    INDEX 01 07:36:63
  TRACK 340 AUDIO
    TITLE "TOEIC LR Kinnojyukugo_07_340"
    INDEX 01 07:37:25
  TRACK 341 AUDIO
    TITLE "TOEIC LR Kinnojyukugo_07_341"
    INDEX 01 07:40:64
  TRACK 342 AUDIO
    TITLE "TOEIC LR Kinnojyukugo_07_342"
    INDEX 01 07:41:64
  TRACK 343 AUDIO
    TITLE "TOEIC LR Kinnojyukugo_07_343"
    INDEX 01 07:43:10
  TRACK 344 AUDIO
    TITLE "TOEIC LR Kinnojyukugo_07_344"
    INDEX 01 07:43:47
  TRACK 345 AUDIO
    TITLE "TOEIC LR Kinnojyukugo_07_345"
    INDEX 01 07:46:55
  TRACK 346 AUDIO
    TITLE "TOEIC LR Kinnojyukugo_07_346"
    INDEX 01 07:47:57
  TRACK 347 AUDIO
    TITLE "TOEIC LR Kinnojyukugo_07_347"
    INDEX 01 07:49:18
  TRACK 348 AUDIO
    TITLE "TOEIC LR Kinnojyukugo_07_348"
    INDEX 01 07:49:57
  TRACK 349 AUDIO
    TITLE "TOEIC LR Kinnojyukugo_07_349"
    INDEX 01 07:51:74
  TRACK 350 AUDIO
    TITLE "TOEIC LR Kinnojyukugo_07_350"
    INDEX 01 07:52:73
  TRACK 351 AUDIO
    TITLE "TOEIC LR Kinnojyukugo_07_351"
    INDEX 01 07:54:27
  TRACK 352 AUDIO
    TITLE "TOEIC LR Kinnojyukugo_07_352"
    INDEX 01 07:54:66
  TRACK 353 AUDIO
    TITLE "TOEIC LR Kinnojyukugo_07_353"
    INDEX 01 07:57:45
  TRACK 354 AUDIO
    TITLE "TOEIC LR Kinnojyukugo_07_354"
    INDEX 01 07:58:45
  TRACK 355 AUDIO
    TITLE "TOEIC LR Kinnojyukugo_07_355"
    INDEX 01 07:59:62
  TRACK 356 AUDIO
    TITLE "TOEIC LR Kinnojyukugo_07_356"
    INDEX 01 08:00:24
  TRACK 357 AUDIO
    TITLE "TOEIC LR Kinnojyukugo_07_357"
    INDEX 01 08:02:19
  TRACK 358 AUDIO
    TITLE "TOEIC LR Kinnojyukugo_07_358"
    INDEX 01 08:03:22
  TRACK 359 AUDIO
    TITLE "TOEIC LR Kinnojyukugo_07_359"
    INDEX 01 08:04:36
  TRACK 360 AUDIO
    TITLE "TOEIC LR Kinnojyukugo_07_360"
    INDEX 01 08:04:73
  TRACK 361 AUDIO
    TITLE "TOEIC LR Kinnojyukugo_07_361"
    INDEX 01 08:07:42
  TRACK 362 AUDIO
    TITLE "TOEIC LR Kinnojyukugo_07_362"
    INDEX 01 08:08:43
  TRACK 363 AUDIO
    TITLE "TOEIC LR Kinnojyukugo_07_363"
    INDEX 01 08:10:03
  TRACK 364 AUDIO
    TITLE "TOEIC LR Kinnojyukugo_07_364"
    INDEX 01 08:10:40
  TRACK 365 AUDIO
    TITLE "TOEIC LR Kinnojyukugo_07_365"
    INDEX 01 08:13:33
  TRACK 366 AUDIO
    TITLE "TOEIC LR Kinnojyukugo_07_366"
    INDEX 01 08:14:36
  TRACK 367 AUDIO
    TITLE "TOEIC LR Kinnojyukugo_07_367"
    INDEX 01 08:15:63
  TRACK 368 AUDIO
    TITLE "TOEIC LR Kinnojyukugo_07_368"
    INDEX 01 08:16:27
  TRACK 369 AUDIO
    TITLE "TOEIC LR Kinnojyukugo_07_369"
    INDEX 01 08:19:72
  TRACK 370 AUDIO
    TITLE "TOEIC LR Kinnojyukugo_07_370"
    INDEX 01 08:20:70
  TRACK 371 AUDIO
    TITLE "TOEIC LR Kinnojyukugo_07_371"
    INDEX 01 08:22:30
  TRACK 372 AUDIO
    TITLE "TOEIC LR Kinnojyukugo_07_372"
    INDEX 01 08:22:67
  TRACK 373 AUDIO
    TITLE "TOEIC LR Kinnojyukugo_07_373"
    INDEX 01 08:26:63
  TRACK 374 AUDIO
    TITLE "TOEIC LR Kinnojyukugo_07_374"
    INDEX 01 08:27:66
  TRACK 375 AUDIO
    TITLE "TOEIC LR Kinnojyukugo_07_375"
    INDEX 01 08:29:41
  TRACK 376 AUDIO
    TITLE "TOEIC LR Kinnojyukugo_07_376"
    INDEX 01 08:30:06
  TRACK 377 AUDIO
    TITLE "TOEIC LR Kinnojyukugo_07_377"
    INDEX 01 08:32:38
  TRACK 378 AUDIO
    TITLE "TOEIC LR Kinnojyukugo_07_378"
    INDEX 01 08:33:37
  TRACK 379 AUDIO
    TITLE "TOEIC LR Kinnojyukugo_07_379"
    INDEX 01 08:34:54
  TRACK 380 AUDIO
    TITLE "TOEIC LR Kinnojyukugo_07_380"
    INDEX 01 08:35:18
  TRACK 381 AUDIO
    TITLE "TOEIC LR Kinnojyukugo_07_381"
    INDEX 01 08:37:49
  TRACK 382 AUDIO
    TITLE "TOEIC LR Kinnojyukugo_07_382"
    INDEX 01 08:38:50
  TRACK 383 AUDIO
    TITLE "TOEIC LR Kinnojyukugo_07_383"
    INDEX 01 08:40:27
  TRACK 384 AUDIO
    TITLE "TOEIC LR Kinnojyukugo_07_384"
    INDEX 01 08:40:65
  TRACK 385 AUDIO
    TITLE "TOEIC LR Kinnojyukugo_07_385"
    INDEX 01 08:43:65
  TRACK 386 AUDIO
    TITLE "TOEIC LR Kinnojyukugo_07_386"
    INDEX 01 08:44:68
  TRACK 387 AUDIO
    TITLE "TOEIC LR Kinnojyukugo_07_387"
    INDEX 01 08:46:10
  TRACK 388 AUDIO
    TITLE "TOEIC LR Kinnojyukugo_07_388"
    INDEX 01 08:46:48
  TRACK 389 AUDIO
    TITLE "TOEIC LR Kinnojyukugo_07_389"
    INDEX 01 08:48:23
  TRACK 390 AUDIO
    TITLE "TOEIC LR Kinnojyukugo_07_390"
    INDEX 01 08:49:22
  TRACK 391 AUDIO
    TITLE "TOEIC LR Kinnojyukugo_07_391"
    INDEX 01 08:50:65
  TRACK 392 AUDIO
    TITLE "TOEIC LR Kinnojyukugo_07_392"
    INDEX 01 08:51:27
  TRACK 393 AUDIO
    TITLE "TOEIC LR Kinnojyukugo_07_393"
    INDEX 01 08:53:59
  TRACK 394 AUDIO
    TITLE "TOEIC LR Kinnojyukugo_07_394"
    INDEX 01 08:54:61
  TRACK 395 AUDIO
    TITLE "TOEIC LR Kinnojyukugo_07_395"
    INDEX 01 08:56:09
  TRACK 396 AUDIO
    TITLE "TOEIC LR Kinnojyukugo_07_396"
    INDEX 01 08:56:50
  TRACK 397 AUDIO
    TITLE "TOEIC LR Kinnojyukugo_07_397"
    INDEX 01 08:58:72
  TRACK 398 AUDIO
    TITLE "TOEIC LR Kinnojyukugo_07_398"
    INDEX 01 08:59:72
  TRACK 399 AUDIO
    TITLE "TOEIC LR Kinnojyukugo_07_399"
    INDEX 01 09:01:45
  TRACK 400 AUDIO
    TITLE "TOEIC LR Kinnojyukugo_07_400"
    INDEX 01 09:02:07
  TRACK 401 AUDIO
    TITLE "TOEIC LR Kinnojyukugo_07_401"
    INDEX 01 09:05:10
